# xmcd
#
# Track frame offsets: 
#        150
#        14182
#        53270
#
# Disc length: 1185 seconds
#
# Revision: 3
# Processed by: cddbd v1.4PL0 Copyright (c) Steve Scherf et al.
# Submitted via: ExactAudioCopy v0.90b2
#
DISCID=1c049f03
DTITLE=Maddkatt Courtship - My Life Muzik
DYEAR=1999
DGENRE=Dance
TTITLE0=My Life Muzik (Edit)
TTITLE1=My Life Muzik (Superchumbo Fly Mix)
TTITLE2=My Life Muzik (Cevin Fisher's Main Frame Club Mix)
EXTD=
EXTT0=EDIT
EXTT1=(Supershumbo Fly Mix)
EXTT2=(Cevin Fisher's Club Mix)
PLAYORDER=
